<svg width="18" height="18" viewBox="0 0 18 18" fill="none" xmlns="http://www.w3.org/2000/svg">
  <path fill-rule="evenodd" clip-rule="evenodd" d="M16 0H2C0.9 0 0 0.9 0 2V16C0 17.1 0.9 18 2 18H16C17.1 18 18 17.1 18 16V2C18 0.9 17.1 0 16 0ZM7.12958 13.8754C7.05721 13.945 6.94279 13.945 6.87042 13.8754L2.72744 9.89177C2.33038 9.50998 2.33038 8.87463 2.72744 8.49285C3.10307 8.13166 3.69693 8.13166 4.07256 8.49285L6.8993 11.2109C6.95554 11.2649 7.04446 11.2649 7.1007 11.2109L13.9274 4.64669C14.3031 4.2855 14.8969 4.2855 15.2726 4.64669C15.6696 5.02848 15.6696 5.66383 15.2726 6.04562L7.12958 13.8754Z" fill="#4ECEA9"/>
</svg>
