<svg width="16" height="16" viewBox="0 0 16 16" fill="none" xmlns="http://www.w3.org/2000/svg">
  <path fill-rule="evenodd" clip-rule="evenodd" d="M13.5685 3.669C13.9102 3.32729 13.9102 2.77327 13.5685 2.43156C13.2268 2.08986 12.6727 2.08986 12.331 2.43156L8 6.76259L3.66897 2.43156C3.32726 2.08985 2.77324 2.08985 2.43153 2.43156C2.08983 2.77327 2.08983 3.32729 2.43153 3.669L6.76256 8.00003L2.43153 12.3311C2.08983 12.6728 2.08983 13.2268 2.43153 13.5685C2.77324 13.9102 3.32726 13.9102 3.66897 13.5685L8 9.23747L12.331 13.5685C12.6727 13.9102 13.2268 13.9102 13.5685 13.5685C13.9102 13.2268 13.9102 12.6728 13.5685 12.3311L9.23744 8.00003L13.5685 3.669Z" fill="#818B9B"/>
</svg>
