<svg width="24" height="24" viewBox="0 0 24 24" fill="none" xmlns="http://www.w3.org/2000/svg">
  <path d="M15.1746 21C14.7292 21 14.4322 20.7052 14.4322 20.2629V17.3883C14.5065 16.7986 14.2838 16.3563 13.9126 15.9878C13.6899 15.7667 13.6156 15.4718 13.7641 15.2507C13.8383 14.9558 14.1353 14.8084 14.358 14.7347C16.5109 14.5136 18.5153 13.7765 18.5153 10.3122C18.5153 9.50137 18.2183 8.69057 17.6244 8.02719C17.4017 7.80606 17.4017 7.51122 17.4759 7.2901C17.6987 6.70042 17.6987 6.11075 17.5502 5.52107C17.179 5.59478 16.5851 5.81591 15.62 6.47929C15.4715 6.62671 15.2488 6.62671 15.0261 6.553C13.4671 6.11075 11.7597 6.11075 10.2007 6.553C9.97801 6.62671 9.75529 6.62671 9.53258 6.47929C8.64174 5.81591 7.97361 5.59478 7.60242 5.52107C7.45395 6.11075 7.45395 6.70042 7.67666 7.2901C7.7509 7.58493 7.7509 7.87977 7.52818 8.02719C6.93429 8.69057 6.63734 9.50137 6.63734 10.3122C6.63734 13.7765 8.64174 14.5136 10.7946 14.7347C11.0916 14.7347 11.3143 14.9558 11.3885 15.2507C11.4627 15.5455 11.3885 15.8404 11.24 15.9878C10.8688 16.3563 10.7204 16.7986 10.7204 17.3145V17.9779V18.0516V20.1892C10.7204 20.6315 10.4234 20.9263 9.97801 20.9263C9.53258 20.9263 9.23564 20.6315 9.23564 20.1892V18.9361C7.00853 19.3047 6.04344 18.0516 5.37531 17.2408C5.07836 16.8723 4.85565 16.5774 4.5587 16.5037C4.18752 16.43 3.89057 15.9878 4.03905 15.6192C4.11328 15.2507 4.5587 14.9558 4.92989 15.1033C5.67226 15.3244 6.11768 15.8404 6.5631 16.3563C7.157 17.1671 7.67666 17.7568 9.23564 17.462V17.3883C9.23564 16.946 9.30987 16.43 9.45835 16.0615C7.37971 15.6192 5.1526 14.2925 5.1526 10.3859C5.1526 9.28024 5.52379 8.24831 6.19192 7.43751C5.89497 6.40559 5.96921 5.44737 6.41463 4.48915C6.48887 4.26802 6.63734 4.1206 6.86005 4.04689C7.157 3.97318 8.12208 3.82576 10.1265 5.07882C11.7597 4.71027 13.4671 4.71027 15.0261 5.07882C16.9563 3.82576 17.9956 3.97318 18.2926 4.04689C18.5153 4.1206 18.6637 4.26802 18.738 4.48915C19.1092 5.44737 19.1834 6.40559 18.9607 7.3638C19.6288 8.1746 20 9.20653 20 10.3122C20 14.5136 17.4759 15.6192 15.6943 16.0615C15.8427 16.5037 15.917 17.0197 15.917 17.462V20.2629C15.917 20.7052 15.62 21 15.1746 21Z" fill="#818B9B"/>
</svg>
