<svg width="16" height="17" viewBox="0 0 16 17" fill="none" xmlns="http://www.w3.org/2000/svg">
  <path d="M11.1746 17C10.7292 17 10.4322 16.7052 10.4322 16.2629V13.3883C10.5065 12.7986 10.2838 12.3563 9.91257 11.9878C9.68986 11.7667 9.61562 11.4718 9.76409 11.2507C9.83833 10.9558 10.1353 10.8084 10.358 10.7347C12.5109 10.5136 14.5153 9.7765 14.5153 6.31217C14.5153 5.50137 14.2183 4.69057 13.6244 4.02719C13.4017 3.80606 13.4017 3.51122 13.4759 3.2901C13.6987 2.70042 13.6987 2.11075 13.5502 1.52107C13.179 1.59478 12.5851 1.81591 11.62 2.47929C11.4715 2.62671 11.2488 2.62671 11.0261 2.553C9.46714 2.11075 7.75969 2.11075 6.20072 2.553C5.97801 2.62671 5.75529 2.62671 5.53258 2.47929C4.64174 1.81591 3.97361 1.59478 3.60242 1.52107C3.45395 2.11075 3.45395 2.70042 3.67666 3.2901C3.7509 3.58493 3.7509 3.87977 3.52818 4.02719C2.93429 4.69057 2.63734 5.50137 2.63734 6.31217C2.63734 9.7765 4.64174 10.5136 6.79461 10.7347C7.09156 10.7347 7.31427 10.9558 7.38851 11.2507C7.46275 11.5455 7.38851 11.8404 7.24003 11.9878C6.86885 12.3563 6.72038 12.7986 6.72038 13.3145V13.9779V14.0516V16.1892C6.72038 16.6315 6.42343 16.9263 5.97801 16.9263C5.53258 16.9263 5.23564 16.6315 5.23564 16.1892V14.9361C3.00853 15.3047 2.04344 14.0516 1.37531 13.2408C1.07836 12.8723 0.855653 12.5774 0.558705 12.5037C0.18752 12.43 -0.109428 11.9878 0.0390457 11.6192C0.113283 11.2507 0.558705 10.9558 0.92989 11.1033C1.67226 11.3244 2.11768 11.8404 2.5631 12.3563C3.157 13.1671 3.67666 13.7568 5.23564 13.462V13.3883C5.23564 12.946 5.30987 12.43 5.45835 12.0615C3.37971 11.6192 1.1526 10.2925 1.1526 6.38588C1.1526 5.28024 1.52379 4.24831 2.19192 3.43751C1.89497 2.40559 1.96921 1.44737 2.41463 0.489147C2.48887 0.268019 2.63734 0.120601 2.86005 0.0468916C3.157 -0.0268176 4.12208 -0.174236 6.12648 1.07882C7.75969 0.710274 9.46714 0.710274 11.0261 1.07882C12.9563 -0.174236 13.9956 -0.0268176 14.2926 0.0468916C14.5153 0.120601 14.6637 0.268019 14.738 0.489147C15.1092 1.44737 15.1834 2.40559 14.9607 3.3638C15.6288 4.1746 16 5.20653 16 6.31217C16 10.5136 13.4759 11.6192 11.6943 12.0615C11.8427 12.5037 11.917 13.0197 11.917 13.462V16.2629C11.917 16.7052 11.62 17 11.1746 17Z" fill="#818B9B"/>
</svg>
